<svg id="preloader-svg" version="1.1" xmlns="http://www.w3.org/2000/svg" xmlns:xlink="http://www.w3.org/1999/xlink" xmlns:a="http://ns.adobe.com/AdobeSVGViewerExtensions/3.0/" x="0px" y="0px" width="1063.6px" height="497.2px" viewBox="0 0 1063.6 497.2" style="" xml:space="preserve" class=" drawsvg-initialized ">
      <style type="text/css">
        .st0 {
          fill: none;
          stroke: #F4F4F4;
          stroke-miterlimit: 10;
        }

        .st1 {
          fill: none;
          stroke: #F4F4F4;
          stroke-width: 2;
          stroke-miterlimit: 10;
        }

        .st2 {
          fill: #414141;
        }
      </style>
      <defs>
      </defs>
      <path id="vertical-line" class="st0 line quszsbDY_0" style="" d="M533.1,0L533.1,497.2"></path>
      <path id="horizontal-line" class="st1 line quszsbDY_1" style="" d="M166.9,351L897.4,351"></path>

      <path id="left-triangle" class="triangle st1 quszsbDY_2" style="" d="M288.6,162.1L191.1,123.6L431.9,165.3Z"></path>
      <path id="right-triangle" class="triangle st1 quszsbDY_3" style="" d="M637.1,164.7L870.2,123.6L772.7,162.1Z"></path>

      <path id="curve-line" class="st1 line quszsbDY_4" d="M0.8,176.3C71.8,280.3,289.3,351.6,533.1,351c245.8-0.6,462.9-74.1,529.6-179.4" style=""></path>

      <path class="teeth st1 quszsbDY_5" d="M527.1,237.7c-3.4-10.6-7.7-18.4-8.9-20.6c-1.6-2.9-5.6-9.6-12.5-18.2c-11.7-14.6-17.6-21.9-30.3-26.9
            c-2.9-1.1-24.3-9.5-43.5-6.6c-9.1,1.4-14,4.8-21.6,10.2c-3.4,2.4-10.1,7.5-16.9,17.4c-6.4,9.4-8.7,16.9-11.6,26.5
            c-1.3,4.3-2.1,7.6-3.6,14.3c-2.4,10.7-3.7,16.1-4.5,22.6c0,0-2.3,18.8,0.9,37.2c0.8,4.8,2,9.6,2,9.6c0.6,2.5,1.7,6.3,3.2,10.9
            c0.4,1.3,0.8,2.2,1,2.9c1.8,5,2.7,7.5,3.5,8.7c2.8,4.3,10,7.1,13.4,8.3c4.5,1.7,9.5,2.9,34.8,5.9c13.8,1.6,20.7,2.5,25,2.8
            c20.8,1.5,35.3,0.4,50-0.8c11-0.9,17.7-1.8,21.4-4.4c2.3-1.6,3-3.5,3.6-4.8c1.4-3.6,0.3-6.4,0-7.1c0,0,0-6.5,0-19.4
            c0-33.2,0.5-37-0.9-47.5C530.2,248.1,528.4,241.7,527.1,237.7z" style=""></path>
      <path class="teeth st1 quszsbDY_6" d="M370.7,243.6c-0.8-6.1-2.5-13.9-7.1-23.1c-1.4-2.9-5.2-10.3-13.1-19.4c-2.3-2.7-7.9-8.1-19-18.9
            c-1.6-1.6-5.5-5.3-11.7-10c-12.1-9-17.4-9.8-20.4-10c-8-0.5-15,2.4-16.7,3.2c-5.2,2.2-7.1,4.8-9.5,9.5c-4.8,9.2-5.9,14.2-5.9,14.2
            c-5.5,14.5-3.8,10.7-5.9,22.6c-0.9,5.1-1.6,10.1-1.8,47.8c-0.1,11.1,0,18.6,5.4,27.8c3.4,5.9,8,10.8,11.8,14.2
            c7.3,6.6,10.2,8.8,14.3,10.5c6.6,2.6,13.3,3.6,18.9,4.4c9.6,1.4,26,2.8,35.8,1.3C379.8,312.4,373.7,266,370.7,243.6z" style=""></path>
      <path class="teeth st1 quszsbDY_7" d="M256.5,203.3c-1.9-7.3-4.5-12.8-5.9-15.8c-3.8-7.6-7.9-13.1-11.9-18.5c-6.7-9-12.9-15.3-25-27.7
            c-15-15.4-18.7-17.8-22.6-17.7c-6.3,0.2-10.2,7.1-15.5,16.4c-3.5,6.1-5.2,12-5.8,14.2c-0.3,0.9-1,3.5-1.6,6.8
            c-0.5,2.6-1.1,7.3-1,14.3c0,1.6,0.4,5.3,1.1,12.6c0.9,8.9,1.2,11.4,1.8,18.2c0.4,4.8,0.4,4.4,0.7,7.3c0.5,5.3,1,10.1,1.9,16
            c0.5,3,0.8,5.2,1.5,8.4c0.9,4.2,2.1,9.3,4.7,15.7c0.9,2.2,2.3,5.6,4.9,10c3.1,5.3,4.3,5.9,12.3,16.4c6.3,8.2,7.5,11.5,11.9,11.7
            c5,0.3,12-3.5,12.9-4c1.9-1,2.5-1.6,5-2.8c3.5-1.6,5.6-1.8,7.9-2.7c5.5-2,2.9-3.9,9.2-10.8c1.8-1.9,2.7-2.5,4.8-5.1
            c1.7-2,2.9-3.7,3.7-4.9c1-1.5,1.6-2.7,2.2-3.6c0.5-1,2.1-4,3.7-8c0,0,0.8-2.1,1.4-4.1C263.9,228.6,256.5,203.3,256.5,203.3z" style=""></path>
      <path class="teeth st1 quszsbDY_8" d="M149.5,161.6c-3.2-2.2-4.9-4.1-5.9-5.3c-2.9-3.4-3.8-6-4.8-8.5c0,0-2.5-6.6-5.9-13.2c-0.7-1.4-3.3-5.2-8.3-12.7
            c-4.9-7.2-6.4-9.3-9.5-9.5c-4.2-0.3-8.5,3-10.7,4.8c-6.2,4.8-7.7,9.7-8.3,16.9c-0.3,4-0.3,7,0,12.7c0.3,4.9,0.6,6,0.7,9.8
            c0.2,5.6-0.4,8.6-0.7,12.9c-1.3,15.3,1.3,29.5,1.3,29.5c0,0,1.4,6.5,3.4,12.2c2.1,5.9,4.6,10.5,6.5,13.8c2.8,5.1,5.3,8.6,6.1,9.7
            c1.2,1.7,1,1.3,3.8,4.9c5,6.6,4.5,8.4,8.6,9.6c3.3,1,7.4,1.1,10.5,1.2c0,0,5.2,0.1,9.7-0.6c14.7-2.3,18.8-14.6,24.1-20.5
            c0.3-0.4,1.4-1.6,2.3-3.3c1.5-2.9,0.2-2.2-2.1-19.9c0,0-0.5-4.1-2.7-27.8c-0.2-2.4-0.2-2.6-0.2-2.9c0.2-2.2,1.1-3.1,0-4.2
            c-0.9-1-2.5-1.5-3.7-1.9C157.4,167.1,153.6,164.4,149.5,161.6z" style=""></path>
      <path class="teeth st1 quszsbDY_9" d="M81.6,213.6c-3.2-0.2-5.5-1.7-8.2-4.5c-3.1-3.2-4.6-5.8-5.6-7.7c-2.7-5.1-4.6-9-5-9.8c-0.7-1.4-2.9-6.2-3.6-7.7
            c-5.7-11.1-6.6-30.6-7.1-42.3c-0.1-2.5-0.5-12.1-0.7-18.5c-0.2-6.3-0.2-5.8-0.2-6.3c-0.4-4.7-1-5.7-0.3-7.9c0.7-2,3.1-6.7,7.1-6.9
            c4.8-0.2,10.6,6.4,13.1,11.1c2.3,4.5,1,6.2,4.8,11.6c1.6,2.3,2.2,2.5,3.6,4.8c2.8,4.7,1.5,6.2,3.6,9c2.9,3.9,9.1,3.4,11.8,7.3
            c0.9,1.3,1.1,2.6,1.6,4.9c0.2,0.9,0.4,2.5,0.4,5c0,3.4-0.6,6-0.7,6.6c-0.4,2.2-0.3,6.5,0.1,15.3c0.4,9.8,0.6,14.7,0.9,16.6
            c0.3,1.7,0.3,3.7,0.3,5c0.2,3.1,0.4,4.8-1.5,6.7c-0.1,0.1-0.3,0.2-0.7,0.6c-4.6,4.1-6.9,6.2-9.5,6.8
            C84.7,213.4,83.3,213.7,81.6,213.6z" style=""></path>
      <path class="st1 quszsbDY_10" d="M167.3,171.1" style=""></path>

      <path class="teeth st1 quszsbDY_11" d="M539.1,239c3.4-10.6,7.6-18.4,8.8-20.6c1.6-2.9,5.5-9.6,12.3-18.2c11.6-14.6,17.4-21.9,29.9-26.9
            c2.8-1.1,24-9.5,42.9-6.6c9,1.4,13.8,4.8,21.4,10.2c3.4,2.4,10,7.5,16.7,17.4c6.3,9.4,8.6,16.9,11.4,26.5c1.3,4.3,2,7.6,3.5,14.3
            c2.4,10.7,3.6,16.1,4.4,22.6c0,0,2.3,18.8-0.9,37.2c-0.8,4.8-2,9.6-2,9.6c-0.6,2.5-1.6,6.3-3.2,10.9c-0.4,1.3-0.8,2.2-1,2.9
            c-1.8,5-2.7,7.5-3.4,8.7c-2.8,4.3-9.9,7.1-13.2,8.3c-4.4,1.7-9.4,2.9-34.3,5.9c-13.6,1.6-20.5,2.5-24.7,2.8
            c-20.6,1.5-34.8,0.4-49.3-0.8c-10.9-0.9-17.5-1.8-21.1-4.4c-2.3-1.6-3-3.5-3.5-4.8c-1.4-3.6-0.3-6.4,0-7.1c0,0,0-6.5,0-19.4
            c0-33.2-0.5-37,0.9-47.5C536.1,249.5,537.9,243,539.1,239z" style=""></path>
      <path class="teeth st1 quszsbDY_12" d="M693.5,244.9c0.8-6.1,2.5-13.9,7-23.1c1.4-2.9,5.2-10.3,12.9-19.4c2.3-2.7,7.8-8.1,18.8-18.9
            c1.6-1.6,5.4-5.3,11.6-10c11.9-9,17.2-9.8,20.1-10c7.9-0.5,14.8,2.4,16.4,3.2c5.2,2.2,7,4.8,9.4,9.5c4.8,9.2,5.9,14.2,5.9,14.2
            c5.4,14.5,3.7,10.7,5.9,22.6c0.9,5.1,1.6,10.1,1.8,47.8c0.1,11.1,0,18.6-5.3,27.8c-3.4,5.9-7.9,10.8-11.7,14.2
            c-7.2,6.6-10.1,8.8-14.1,10.5c-6.5,2.6-13.1,3.6-18.6,4.4c-9.5,1.4-25.7,2.8-35.4,1.3C684.6,313.8,690.6,267.4,693.5,244.9z" style=""></path>
      <path class="teeth st1 quszsbDY_13" d="M806.3,204.7c1.9-7.3,4.4-12.8,5.9-15.8c3.7-7.6,7.8-13.1,11.7-18.5c6.6-9,12.7-15.3,24.7-27.7
            c14.8-15.4,18.4-17.8,22.3-17.7c6.2,0.2,10.1,7.1,15.3,16.4c3.4,6.1,5.1,12,5.7,14.2c0.3,0.9,1,3.5,1.5,6.8
            c0.4,2.6,1.1,7.3,0.9,14.3c0,1.6-0.4,5.3-1.1,12.6c-0.9,8.9-1.1,11.4-1.8,18.2c-0.4,4.8-0.4,4.4-0.7,7.3c-0.5,5.3-1,10.1-1.9,16
            c-0.5,3-0.8,5.2-1.5,8.4c-0.9,4.2-2.1,9.3-4.7,15.7c-0.9,2.2-2.3,5.6-4.8,10c-3.1,5.3-4.2,5.9-12.1,16.4
            c-6.2,8.2-7.4,11.5-11.8,11.7c-5,0.3-11.8-3.5-12.8-4c-1.8-1-2.4-1.6-4.9-2.8c-3.5-1.6-5.6-1.8-7.8-2.7c-5.4-2-2.9-3.9-9.1-10.8
            c-1.7-1.9-2.6-2.5-4.7-5.1c-1.7-2-2.8-3.7-3.6-4.9c-1-1.5-1.6-2.7-2.1-3.6c-0.5-1-2.1-4-3.6-8c0,0-0.8-2.1-1.3-4.1
            C799,230,806.3,204.7,806.3,204.7z" style=""></path>
      <path class="teeth st1 quszsbDY_14" d="M912,163c3.2-2.2,4.9-4.1,5.9-5.3c2.9-3.4,3.8-6,4.7-8.5c0,0,2.5-6.6,5.9-13.2c0.7-1.4,3.2-5.2,8.2-12.7
            c4.8-7.2,6.3-9.3,9.4-9.5c4.2-0.3,8.4,3,10.6,4.8c6.1,4.8,7.6,9.7,8.2,16.9c0.3,4,0.3,7,0,12.7c-0.3,4.9-0.6,6-0.7,9.8
            c-0.2,5.6,0.4,8.6,0.7,12.9c1.3,15.3-1.3,29.5-1.3,29.5c0,0-1.4,6.5-3.4,12.2c-2.1,5.9-4.6,10.5-6.4,13.8c-2.8,5.1-5.2,8.6-6,9.7
            c-1.2,1.7-1,1.3-3.7,4.9c-5,6.6-4.5,8.4-8.5,9.6c-3.3,1-7.3,1.1-10.3,1.2c0,0-5.2,0.1-9.6-0.6c-14.5-2.3-18.6-14.6-23.8-20.5
            c-0.3-0.4-1.4-1.6-2.3-3.3c-1.5-2.9-0.2-2.2,2.1-19.9c0,0,0.5-4.1,2.7-27.8c0.2-2.4,0.2-2.6,0.2-2.9c-0.2-2.2-1-3.1,0-4.2
            c0.9-1,2.4-1.5,3.7-1.9C904.2,168.5,908,165.8,912,163z" style=""></path>
      <path class="teeth st1 quszsbDY_15" d="M979.1,215c3.1-0.2,5.4-1.7,8.1-4.5c3.1-3.2,4.5-5.8,5.5-7.7c2.7-5.1,4.6-9,4.9-9.8c0.7-1.4,2.8-6.2,3.6-7.7
            c5.6-11.1,6.5-30.6,7-42.3c0.1-2.5,0.5-12.1,0.7-18.5c0.2-6.3,0.2-5.8,0.2-6.3c0.4-4.7,1-5.7,0.3-7.9c-0.7-2-3.1-6.7-7-6.9
            c-4.8-0.2-10.5,6.4-12.9,11.1c-2.3,4.5-0.9,6.2-4.7,11.6c-1.6,2.3-2.2,2.5-3.5,4.8c-2.8,4.7-1.5,6.2-3.5,9c-2.8,3.9-9,3.4-11.6,7.3
            c-0.9,1.3-1.1,2.6-1.6,4.9c-0.2,0.9-0.4,2.5-0.4,5c0,3.4,0.6,6,0.7,6.6c0.4,2.2,0.3,6.5-0.1,15.3c-0.4,9.8-0.5,14.7-0.9,16.6
            c-0.3,1.7-0.2,3.7-0.3,5c-0.2,3.1-0.4,4.8,1.5,6.7c0.1,0.1,0.3,0.2,0.7,0.6c4.5,4.1,6.8,6.2,9.4,6.8
            C975.9,214.8,977.3,215.1,979.1,215z" style=""></path>
      <path class="st1 quszsbDY_16" d="M894.4,172.5" style=""></path>
      <path class="st2 quszsbDY_17" d="M519.1,338.7A12,14.1 0,1,1 543.1,338.7A12,14.1 0,1,1 519.1,338.7"></path>
      <path class="st2 quszsbDY_18" d="M243.8,270.9A12,14.1 0,1,1 267.8,270.9A12,14.1 0,1,1 243.8,270.9"></path>
      <path class="st2 quszsbDY_19" d="M357.3,306.8A12,14.1 0,1,1 381.3,306.8A12,14.1 0,1,1 357.3,306.8"></path>
      <path class="st2 quszsbDY_20" d="M683.2,307.2A12,14.1 0,1,1 707.2,307.2A12,14.1 0,1,1 683.2,307.2"></path>
      <path class="st2 quszsbDY_21" d="M798,271.1A12,14.1 0,1,1 822,271.1A12,14.1 0,1,1 798,271.1"></path>
    <style data-made-with="vivus-instant">.quszsbDY_0{stroke-dasharray:498 500;stroke-dashoffset:499;animation:quszsbDY_draw_0 2800ms linear 0ms infinite,quszsbDY_fade 2800ms linear 0ms infinite;}.quszsbDY_1{stroke-dasharray:731 733;stroke-dashoffset:732;animation:quszsbDY_draw_1 2800ms linear 0ms infinite,quszsbDY_fade 2800ms linear 0ms infinite;}.quszsbDY_2{stroke-dasharray:493 495;stroke-dashoffset:494;animation:quszsbDY_draw_2 2800ms linear 0ms infinite,quszsbDY_fade 2800ms linear 0ms infinite;}.quszsbDY_3{stroke-dasharray:478 480;stroke-dashoffset:479;animation:quszsbDY_draw_3 2800ms linear 0ms infinite,quszsbDY_fade 2800ms linear 0ms infinite;}.quszsbDY_4{stroke-dasharray:1155 1157;stroke-dashoffset:1156;animation:quszsbDY_draw_4 2800ms linear 0ms infinite,quszsbDY_fade 2800ms linear 0ms infinite;}.quszsbDY_5{stroke-dasharray:567 569;stroke-dashoffset:568;animation:quszsbDY_draw_5 2800ms linear 0ms infinite,quszsbDY_fade 2800ms linear 0ms infinite;}.quszsbDY_6{stroke-dasharray:439 441;stroke-dashoffset:440;animation:quszsbDY_draw_6 2800ms linear 0ms infinite,quszsbDY_fade 2800ms linear 0ms infinite;}.quszsbDY_7{stroke-dasharray:410 412;stroke-dashoffset:411;animation:quszsbDY_draw_7 2800ms linear 0ms infinite,quszsbDY_fade 2800ms linear 0ms infinite;}.quszsbDY_8{stroke-dasharray:350 352;stroke-dashoffset:351;animation:quszsbDY_draw_8 2800ms linear 0ms infinite,quszsbDY_fade 2800ms linear 0ms infinite;}.quszsbDY_9{stroke-dasharray:264 266;stroke-dashoffset:265;animation:quszsbDY_draw_9 2800ms linear 0ms infinite,quszsbDY_fade 2800ms linear 0ms infinite;}.quszsbDY_10{stroke-dasharray:0 2;stroke-dashoffset:1;animation:quszsbDY_draw_10 2800ms linear 0ms infinite,quszsbDY_fade 2800ms linear 0ms infinite;}.quszsbDY_11{stroke-dasharray:564 566;stroke-dashoffset:565;animation:quszsbDY_draw_11 2800ms linear 0ms infinite,quszsbDY_fade 2800ms linear 0ms infinite;}.quszsbDY_12{stroke-dasharray:437 439;stroke-dashoffset:438;animation:quszsbDY_draw_12 2800ms linear 0ms infinite,quszsbDY_fade 2800ms linear 0ms infinite;}.quszsbDY_13{stroke-dasharray:409 411;stroke-dashoffset:410;animation:quszsbDY_draw_13 2800ms linear 0ms infinite,quszsbDY_fade 2800ms linear 0ms infinite;}.quszsbDY_14{stroke-dasharray:349 351;stroke-dashoffset:350;animation:quszsbDY_draw_14 2800ms linear 0ms infinite,quszsbDY_fade 2800ms linear 0ms infinite;}.quszsbDY_15{stroke-dasharray:263 265;stroke-dashoffset:264;animation:quszsbDY_draw_15 2800ms linear 0ms infinite,quszsbDY_fade 2800ms linear 0ms infinite;}.quszsbDY_16{stroke-dasharray:0 2;stroke-dashoffset:1;animation:quszsbDY_draw_16 2800ms linear 0ms infinite,quszsbDY_fade 2800ms linear 0ms infinite;}.quszsbDY_17{stroke-dasharray:83 85;stroke-dashoffset:84;animation:quszsbDY_draw_17 2800ms linear 0ms infinite,quszsbDY_fade 2800ms linear 0ms infinite;}.quszsbDY_18{stroke-dasharray:83 85;stroke-dashoffset:84;animation:quszsbDY_draw_18 2800ms linear 0ms infinite,quszsbDY_fade 2800ms linear 0ms infinite;}.quszsbDY_19{stroke-dasharray:83 85;stroke-dashoffset:84;animation:quszsbDY_draw_19 2800ms linear 0ms infinite,quszsbDY_fade 2800ms linear 0ms infinite;}.quszsbDY_20{stroke-dasharray:83 85;stroke-dashoffset:84;animation:quszsbDY_draw_20 2800ms linear 0ms infinite,quszsbDY_fade 2800ms linear 0ms infinite;}.quszsbDY_21{stroke-dasharray:83 85;stroke-dashoffset:84;animation:quszsbDY_draw_21 2800ms linear 0ms infinite,quszsbDY_fade 2800ms linear 0ms infinite;}@keyframes quszsbDY_draw{100%{stroke-dashoffset:0;}}@keyframes quszsbDY_fade{0%{stroke-opacity:1;}85.71428571428572%{stroke-opacity:1;}100%{stroke-opacity:0;}}@keyframes quszsbDY_draw_0{3.571428571428571%{stroke-dashoffset: 499}25%{ stroke-dashoffset: 0;}100%{ stroke-dashoffset: 0;}}@keyframes quszsbDY_draw_1{5.612244897959184%{stroke-dashoffset: 732}27.04081632653061%{ stroke-dashoffset: 0;}100%{ stroke-dashoffset: 0;}}@keyframes quszsbDY_draw_2{7.653061224489796%{stroke-dashoffset: 494}29.081632653061224%{ stroke-dashoffset: 0;}100%{ stroke-dashoffset: 0;}}@keyframes quszsbDY_draw_3{9.693877551020408%{stroke-dashoffset: 479}31.122448979591837%{ stroke-dashoffset: 0;}100%{ stroke-dashoffset: 0;}}@keyframes quszsbDY_draw_4{11.73469387755102%{stroke-dashoffset: 1156}33.16326530612245%{ stroke-dashoffset: 0;}100%{ stroke-dashoffset: 0;}}@keyframes quszsbDY_draw_5{13.775510204081634%{stroke-dashoffset: 568}35.204081632653065%{ stroke-dashoffset: 0;}100%{ stroke-dashoffset: 0;}}@keyframes quszsbDY_draw_6{15.816326530612246%{stroke-dashoffset: 440}37.244897959183675%{ stroke-dashoffset: 0;}100%{ stroke-dashoffset: 0;}}@keyframes quszsbDY_draw_7{17.857142857142858%{stroke-dashoffset: 411}39.285714285714285%{ stroke-dashoffset: 0;}100%{ stroke-dashoffset: 0;}}@keyframes quszsbDY_draw_8{19.897959183673468%{stroke-dashoffset: 351}41.3265306122449%{ stroke-dashoffset: 0;}100%{ stroke-dashoffset: 0;}}@keyframes quszsbDY_draw_9{21.938775510204085%{stroke-dashoffset: 265}43.36734693877551%{ stroke-dashoffset: 0;}100%{ stroke-dashoffset: 0;}}@keyframes quszsbDY_draw_10{23.979591836734695%{stroke-dashoffset: 1}45.40816326530613%{ stroke-dashoffset: 0;}100%{ stroke-dashoffset: 0;}}@keyframes quszsbDY_draw_11{26.02040816326531%{stroke-dashoffset: 565}47.44897959183673%{ stroke-dashoffset: 0;}100%{ stroke-dashoffset: 0;}}@keyframes quszsbDY_draw_12{28.061224489795922%{stroke-dashoffset: 438}49.48979591836735%{ stroke-dashoffset: 0;}100%{ stroke-dashoffset: 0;}}@keyframes quszsbDY_draw_13{30.102040816326532%{stroke-dashoffset: 410}51.53061224489795%{ stroke-dashoffset: 0;}100%{ stroke-dashoffset: 0;}}@keyframes quszsbDY_draw_14{32.142857142857146%{stroke-dashoffset: 350}53.57142857142857%{ stroke-dashoffset: 0;}100%{ stroke-dashoffset: 0;}}@keyframes quszsbDY_draw_15{34.18367346938776%{stroke-dashoffset: 264}55.612244897959194%{ stroke-dashoffset: 0;}100%{ stroke-dashoffset: 0;}}@keyframes quszsbDY_draw_16{36.224489795918366%{stroke-dashoffset: 1}57.6530612244898%{ stroke-dashoffset: 0;}100%{ stroke-dashoffset: 0;}}@keyframes quszsbDY_draw_17{38.26530612244898%{stroke-dashoffset: 84}59.693877551020414%{ stroke-dashoffset: 0;}100%{ stroke-dashoffset: 0;}}@keyframes quszsbDY_draw_18{40.3061224489796%{stroke-dashoffset: 84}61.73469387755103%{ stroke-dashoffset: 0;}100%{ stroke-dashoffset: 0;}}@keyframes quszsbDY_draw_19{42.3469387755102%{stroke-dashoffset: 84}63.775510204081634%{ stroke-dashoffset: 0;}100%{ stroke-dashoffset: 0;}}@keyframes quszsbDY_draw_20{44.38775510204081%{stroke-dashoffset: 84}65.81632653061224%{ stroke-dashoffset: 0;}100%{ stroke-dashoffset: 0;}}@keyframes quszsbDY_draw_21{46.42857142857143%{stroke-dashoffset: 84}67.85714285714286%{ stroke-dashoffset: 0;}100%{ stroke-dashoffset: 0;}}</style></svg>
