<?xml version="1.0" encoding="UTF-8" standalone="no"?>
<!-- Created with Inkscape (http://www.inkscape.org/) -->

<svg
   xmlns:dc="http://purl.org/dc/elements/1.1/"
   xmlns:cc="http://creativecommons.org/ns#"
   xmlns:rdf="http://www.w3.org/1999/02/22-rdf-syntax-ns#"
   xmlns:svg="http://www.w3.org/2000/svg"
   xmlns="http://www.w3.org/2000/svg"
   xmlns:sodipodi="http://sodipodi.sourceforge.net/DTD/sodipodi-0.dtd"
   xmlns:inkscape="http://www.inkscape.org/namespaces/inkscape"
   width="146.27678mm"
   height="59.342258mm"
   viewBox="0 0 146.27678 59.342258"
   version="1.1"
   id="svg2638"
   inkscape:version="0.92.3 (2405546, 2018-03-11)"
   sodipodi:docname="logosvg.svg">
  <defs
     id="defs2632">
    <clipPath
       clipPathUnits="userSpaceOnUse"
       id="clipPath2604">
      <path
         sodipodi:type="star"
         style="opacity:1;fill:none;fill-opacity:1;stroke:#000000;stroke-width:0.1;stroke-miterlimit:4;stroke-dasharray:none;stroke-opacity:0.96341463"
         id="path2606"
         sodipodi:sides="3"
         sodipodi:cx="92.613007"
         sodipodi:cy="24.816654"
         sodipodi:r1="24.389193"
         sodipodi:r2="12.194596"
         sodipodi:arg1="-1.5707963"
         sodipodi:arg2="-0.52359878"
         inkscape:flatsided="false"
         inkscape:rounded="0"
         inkscape:randomized="0"
         d="m 92.613007,0.42746162 10.560833,18.29189438 10.56083,18.291895 -21.121663,-1e-6 -21.121661,0 10.56083,-18.291894 z"
         inkscape:transform-center-y="-6.7826738"
         transform="matrix(1.7176299,0,0,1.1124064,-66.627737,10.340418)"
         inkscape:transform-center-x="-1.4784337e-06" />
    </clipPath>
  </defs>
  <sodipodi:namedview
     id="base"
     pagecolor="#ffffff"
     bordercolor="#666666"
     borderopacity="1.0"
     inkscape:pageopacity="0.0"
     inkscape:pageshadow="2"
     inkscape:zoom="0.7"
     inkscape:cx="144.50494"
     inkscape:cy="96.406245"
     inkscape:document-units="mm"
     inkscape:current-layer="layer1"
     showgrid="false"
     inkscape:measure-start="0,0"
     inkscape:measure-end="0,0"
     showguides="true"
     inkscape:guide-bbox="true"
     inkscape:window-width="1331"
     inkscape:window-height="713"
     inkscape:window-x="35"
     inkscape:window-y="27"
     inkscape:window-maximized="1" />
  <metadata
     id="metadata2635">
    <rdf:RDF>
      <cc:Work
         rdf:about="">
        <dc:format>image/svg+xml</dc:format>
        <dc:type
           rdf:resource="http://purl.org/dc/dcmitype/StillImage" />
        <dc:title></dc:title>
      </cc:Work>
    </rdf:RDF>
  </metadata>
  <g
     inkscape:label="Layer 1"
     inkscape:groupmode="layer"
     id="layer1"
     transform="translate(-35.151787,-112.92559)">
    <path
       transform="matrix(1.3489345,0,0,1.3489345,33.270522,121.0576)"
       style="display:inline;opacity:1;fill:#91c508;fill-opacity:1;stroke:none;stroke-width:0.09499232;stroke-miterlimit:4;stroke-dasharray:none;stroke-opacity:0.96341463"
       clip-path="url(#clipPath2604)"
       d="M 92.425781,-16.990234 A 25.987312,27.470438 0 0 0 66.4375,10.480469 25.987312,27.470438 0 0 0 92.425781,37.951172 25.987312,27.470438 0 0 0 118.41211,10.480469 25.987312,27.470438 0 0 0 92.425781,-16.990234 Z m 0.05273,2.246093 A 23.325508,25.141731 0 0 1 115.80273,10.396484 23.325508,25.141731 0 0 1 92.478516,35.539062 23.325508,25.141731 0 0 1 69.152344,10.396484 23.325508,25.141731 0 0 1 92.478516,-14.744141 Z"
       id="path1022"
       inkscape:connector-curvature="0" />
    <g
       aria-label="DENTALVIP"
       transform="matrix(1.3520743,0,0,1.345802,33.282514,120.87722)"
       style="font-style:normal;font-weight:normal;font-size:35.49009323px;line-height:1.25;font-family:sans-serif;letter-spacing:0px;word-spacing:0px;display:inline;fill:#000000;fill-opacity:1;stroke:none;stroke-width:0.88725162"
       id="text985">
      <path
         d="m 1.4898658,4.4955521 h 5.7635873 q 2.7492979,0 4.0742599,1.4574588 1.358087,1.4574589 1.358087,4.2730041 v 11.72592 q 0,2.815545 -1.358087,4.273004 -1.324962,1.457459 -4.0742599,1.457459 H 1.4898658 Z M 5.133513,7.8079586 V 24.369991 h 2.053692 q 0.8612257,0 1.3580867,-0.496861 0.496861,-0.496861 0.496861,-1.755575 v -12.05716 q 0,-1.2587144 -0.496861,-1.7555754 -0.496861,-0.496861 -1.3580867,-0.496861 z"
         style="font-style:normal;font-variant:normal;font-weight:normal;font-stretch:normal;font-size:33.1240654px;font-family:'Bebas Neue';-inkscape-font-specification:'Bebas Neue';fill:#999999;fill-opacity:1;stroke-width:0.88725162"
         id="path997"
         inkscape:connector-curvature="0" />
      <path
         d="m 18.65486,14.267151 h 5.001734 v 3.312407 H 18.65486 v 6.790433 h 6.293572 v 3.312407 H 15.011213 V 4.4955521 h 9.937219 V 7.8079586 H 18.65486 Z"
         style="font-style:normal;font-variant:normal;font-weight:normal;font-stretch:normal;font-size:33.1240654px;font-family:'Bebas Neue';-inkscape-font-specification:'Bebas Neue';fill:#999999;fill-opacity:1;stroke-width:0.88725162"
         id="path999"
         inkscape:connector-curvature="0" />
      <path
         d="M 30.420114,10.888497 V 27.682398 H 27.140831 V 4.4955521 h 4.571121 l 3.74302,13.8789829 V 4.4955521 H 38.70113 V 27.682398 h -3.743019 z"
         style="font-style:normal;font-variant:normal;font-weight:normal;font-stretch:normal;font-size:33.1240654px;font-family:'Bebas Neue';-inkscape-font-specification:'Bebas Neue';fill:#999999;fill-opacity:1;stroke-width:0.88725162"
         id="path1001"
         inkscape:connector-curvature="0" />
      <path
         d="M 40.282286,4.4955521 H 51.544468 V 7.8079586 H 47.735201 V 27.682398 H 44.091553 V 7.8079586 h -3.809267 z"
         style="font-style:normal;font-variant:normal;font-weight:normal;font-stretch:normal;font-size:33.1240654px;font-family:'Bebas Neue';-inkscape-font-specification:'Bebas Neue';fill:#999999;fill-opacity:1;stroke-width:0.88725162"
         id="path1003"
         inkscape:connector-curvature="0" />
      <path
         d="m 63.67978,27.682398 h -3.676771 l -0.629357,-4.206756 h -4.471749 l -0.629357,4.206756 H 50.927015 L 54.63691,4.4955521 h 5.332975 z m -8.31414,-7.353543 h 3.511151 L 57.121215,8.6029362 Z"
         style="font-style:normal;font-variant:normal;font-weight:normal;font-stretch:normal;font-size:33.1240654px;font-family:'Bebas Neue';-inkscape-font-specification:'Bebas Neue';fill:#999999;fill-opacity:1;stroke-width:0.88725162"
         id="path1005"
         inkscape:connector-curvature="0" />
      <path
         d="m 65.344266,4.4955521 h 3.643648 V 24.369991 h 5.995455 v 3.312407 h -9.639103 z"
         style="font-style:normal;font-variant:normal;font-weight:normal;font-stretch:normal;font-size:33.1240654px;font-family:'Bebas Neue';-inkscape-font-specification:'Bebas Neue';fill:#999999;fill-opacity:1;stroke-width:0.88725162"
         id="path1007"
         inkscape:connector-curvature="0" />
      <path
         d="M 82.099865,23.409393 84.882287,4.4955521 h 3.34553 L 84.650418,27.682398 H 79.218071 L 75.640672,4.4955521 h 3.676772 z"
         style="line-height:0.25;fill:#c2c2c2;fill-opacity:1"
         id="path1009"
         inkscape:connector-curvature="0" />
      <path
         d="M 89.928533,4.4955521 H 93.57218 V 27.682398 h -3.643647 z"
         style="line-height:0.25;fill:#c2c2c2;fill-opacity:1"
         id="path1011"
         inkscape:connector-curvature="0" />
      <path
         d="m 101.57009,4.4955521 q 2.7493,0 4.07426,1.4574588 1.35809,1.4574589 1.35809,4.2730041 v 3.01429 q 0,2.815546 -1.35809,4.273005 -1.32496,1.457459 -4.07426,1.457459 h -1.72245 v 8.711629 H 96.203992 V 4.4955521 Z m -1.72245,3.3124065 v 7.8504034 h 1.72245 q 0.86123,0 1.32496,-0.463737 0.46374,-0.463737 0.46374,-1.722451 V 9.9941469 q 0,-1.2587145 -0.46374,-1.7224514 -0.46373,-0.4637369 -1.32496,-0.4637369 z"
         style="line-height:0.25;fill:#c2c2c2;fill-opacity:1"
         id="path1013"
         inkscape:connector-curvature="0" />
    </g>
  </g>
</svg>
