<?xml version="1.0" encoding="utf-8"?>
<!-- Generator: Adobe Illustrator 16.0.0, SVG Export Plug-In . SVG Version: 6.00 Build 0)  -->
<!DOCTYPE svg PUBLIC "-//W3C//DTD SVG 1.1//EN" "http://www.w3.org/Graphics/SVG/1.1/DTD/svg11.dtd">
<svg version="1.1" id="Capa_1" xmlns="http://www.w3.org/2000/svg" xmlns:xlink="http://www.w3.org/1999/xlink" x="0px" y="0px"
	 width="415.24px" height="128.48px" viewBox="0 0 415.24 128.48" enable-background="new 0 0 415.24 128.48" xml:space="preserve">
<g id="layer1" transform="translate(-35.151787,-112.92559)" inkscape:groupmode="layer" inkscape:label="Layer 1">
	<path fill="#91C508" d="M450.115,213.257c-17.73,17.35-41.47,27.958-67.57,27.958c0,0,0,0-0.01,0
		c-26.05,0-49.76-10.568-67.48-27.877l6.58-7.358c15.96,16.152,37.46,26.042,61.11,26.042c23.59,0,45.03-9.85,60.98-25.913
		L450.115,213.257z"/>
	<g id="text985" transform="matrix(1.3520743,0,0,1.345802,33.282514,120.87722)">
		<path id="path997" inkscape:connector-curvature="0" fill="#999999" d="M1.687-5.395l15.829-0.371
			c5.195,0,9.045,1.373,11.549,4.119c2.567,2.746,3.85,6.772,3.85,12.076V43.57c0,5.304-1.283,9.33-3.85,12.076
			c-2.504,2.747-6.353,4.12-11.549,4.12L1.687,60.137V-5.395z M11.506,3.595v46.809h5.821c1.627,0,2.911-0.468,3.85-1.404
			c0.939-0.936,1.408-2.59,1.408-4.962V9.961c0-2.372-0.47-4.025-1.408-4.962c-0.939-0.936-2.222-1.404-3.85-1.404H11.506z"/>
		<path id="path999" inkscape:connector-curvature="0" fill="#999999" d="M49.834,21.851h14.178v9.362H49.834v19.191h17.84v9.362
			H39.506V-5.766h28.169v9.361h-17.84V21.851z"/>
		<path id="path1001" inkscape:connector-curvature="0" fill="#999999" d="M83.185,12.302v47.465h-9.296V-5.766h12.958l10.61,39.226
			V-5.766h9.202v65.533h-10.61L83.185,12.302z"/>
		<path id="path1003" inkscape:connector-curvature="0" fill="#999999" d="M111.14-5.766h31.924v9.361h-10.798v56.171h-10.328V3.595
			H111.14V-5.766z"/>
		<path id="path1005" inkscape:connector-curvature="0" fill="#999999" d="M177.464,59.767h-10.422l-1.784-11.89h-12.676
			l-1.784,11.89h-9.483l10.516-65.533h15.117L177.464,59.767z M153.896,38.983h9.953l-4.976-33.14L153.896,38.983z"/>
		<path id="path1007" inkscape:connector-curvature="0" fill="#999999" d="M182.183-5.766h10.328v56.171h16.995v9.362h-27.323
			V-5.766z"/>
		<path id="path1009" inkscape:connector-curvature="0" fill="#C2C2C2" d="M229.678,47.689l7.887-53.455h9.483l-10.141,65.533
			h-15.399L211.369-5.766h10.422L229.678,47.689z"/>
		<path id="path1011" inkscape:connector-curvature="0" fill="#C2C2C2" d="M251.87-5.766h10.328v65.533H251.87V-5.766z"/>
		<path id="path1013" inkscape:connector-curvature="0" fill="#C2C2C2" d="M284.87-5.766c5.195,0,9.045,1.373,11.549,4.119
			c2.566,2.746,3.85,6.772,3.85,12.076v8.52c0,5.305-1.283,9.331-3.85,12.077c-2.504,2.746-6.354,4.119-11.549,4.119h-4.883v24.622
			h-10.328V-5.766H284.87z M279.987,3.595v22.187h4.883c1.627,0,2.879-0.436,3.756-1.31c0.876-0.874,1.315-2.497,1.315-4.869V9.774
			c0-2.372-0.438-3.994-1.315-4.868c-0.877-0.874-2.129-1.311-3.756-1.311H279.987z"/>
	</g>
</g>
</svg>
